<?xml version="1.0" standalone="no"?>
<!DOCTYPE svg PUBLIC "-//W3C//DTD SVG 20010904//EN"
 "http://www.w3.org/TR/2001/REC-SVG-20010904/DTD/svg10.dtd">
<svg version="1.0" xmlns="http://www.w3.org/2000/svg"
 width="501.000000pt" height="501.000000pt" viewBox="0 0 501.000000 501.000000"
 preserveAspectRatio="xMidYMid meet">
<metadata>
Created by potrace 1.11, written by Peter Selinger 2001-2013
</metadata>
<g transform="translate(0.000000,501.000000) scale(0.100000,-0.100000)"
fill="#000000" stroke="none">
<path d="M2329 5006 c-2 -2 -40 -6 -84 -10 -44 -4 -116 -13 -160 -21 -44 -8
-91 -16 -105 -19 -126 -21 -366 -100 -524 -172 -358 -163 -644 -383 -911 -705
-175 -210 -356 -558 -440 -844 -32 -110 -71 -289 -80 -370 -4 -33 -11 -89 -15
-125 -8 -70 -5 -453 4 -510 3 -19 8 -57 11 -85 6 -48 20 -131 32 -185 4 -14 8
-33 10 -43 13 -72 82 -286 121 -382 23 -55 125 -260 158 -315 27 -47 134 -207
158 -237 191 -240 361 -400 587 -552 416 -280 861 -418 1374 -426 357 -5 620
40 952 164 171 63 416 193 539 285 23 17 55 40 70 51 118 84 327 287 437 425
205 257 361 559 445 860 41 148 62 245 78 365 3 27 8 61 10 75 3 14 6 115 8
225 5 289 -12 439 -79 705 -57 228 -192 532 -322 727 -246 367 -560 650 -938
843 -263 134 -559 227 -810 256 -33 3 -69 8 -80 11 -23 5 -441 13 -446 9z
m341 -1080 c129 -13 251 -43 387 -97 401 -157 693 -495 803 -929 34 -136 44
-229 44 -400 0 -199 -19 -323 -76 -500 -59 -182 -178 -379 -312 -514 -111
-112 -272 -228 -366 -266 -19 -7 -40 -17 -46 -21 -16 -12 -173 -66 -229 -79
-27 -7 -59 -14 -70 -16 -11 -3 -67 -11 -125 -18 -158 -18 -340 -11 -480 20
-36 8 -76 17 -89 20 -118 25 -337 130 -454 217 -156 115 -313 300 -397 466
-56 111 -119 307 -134 416 -3 22 -10 68 -14 101 -10 71 -8 302 2 389 59 487
347 891 778 1090 70 32 210 81 259 90 13 3 47 10 76 15 114 24 298 31 443 16z"/>
<path d="M2405 3035 c-5 -1 -30 -9 -55 -16 -163 -48 -320 -213 -360 -379 -77
-322 168 -645 497 -652 93 -2 152 11 242 53 181 84 294 258 300 459 2 100 -16
177 -62 264 -33 62 -135 173 -184 200 -104 56 -182 76 -288 75 -44 0 -84 -2
-90 -4z"/>
</g>
</svg>
