<svg width="16" height="16" xmlns="http://www.w3.org/2000/svg"><path d="M14.667 0H1.333A1.32 1.32 0 0 0 0 1.333v13.334A1.32 1.32 0 0 0 1.333 16h13.334A1.32 1.32 0 0 0 16 14.667V1.333A1.32 1.32 0 0 0 14.667 0zM8 15.467v-5.334H5.867V8H8V6.133c0-1.52 1.173-2.8 2.667-2.933h2.4v2.133h-2.134c-.453 0-.8.347-.8.8V8H12.8v2.133h-2.667v5.334H8zm7.467-.8c0 .453-.347.8-.8.8h-4v-4.8h2.666v-3.2h-2.666V6.133c0-.16.106-.266.266-.266H13.6v-3.2h-2.96a3.5 3.5 0 0 0-3.173 3.466v1.334H5.333v3.2h2.134v4.8H1.333a.786.786 0 0 1-.8-.8V1.333c0-.453.347-.8.8-.8h13.334c.453 0 .8.347.8.8v13.334z" fill="#D02746" fill-rule="nonzero"/></svg>
