<svg width="40" height="40" xmlns="http://www.w3.org/2000/svg"><g fill="#D02746" fill-rule="nonzero"><path d="M20 10c-5.514 0-10 4.486-10 10s4.486 10 10 10 10-4.486 10-10-4.486-10-10-10zm0 18.571c-4.726 0-8.571-3.845-8.571-8.571 0-4.726 3.845-8.571 8.571-8.571 4.726 0 8.571 3.845 8.571 8.571 0 4.726-3.845 8.571-8.571 8.571z"/><path d="M37.94 15.555h-1.495a16.882 16.882 0 0 0-1.674-4.042l1.056-1.056c.39-.389.603-.907.603-1.456 0-.55-.214-1.068-.603-1.457L32.455 4.17c-.778-.777-2.134-.778-2.913 0l-1.057 1.056a16.93 16.93 0 0 0-4.041-1.673V2.059C24.444.924 23.52 0 22.384 0h-4.77c-1.135 0-2.059.924-2.059 2.06v1.494a16.92 16.92 0 0 0-4.042 1.674l-1.056-1.056c-.779-.78-2.136-.778-2.913 0L4.17 7.544a2.047 2.047 0 0 0-.603 1.457c0 .55.214 1.067.603 1.457l1.056 1.056a16.862 16.862 0 0 0-1.673 4.041H2.059C.924 15.555 0 16.48 0 17.615v4.769c0 1.136.924 2.06 2.06 2.06h1.494a16.92 16.92 0 0 0 1.674 4.042l-1.056 1.056A2.047 2.047 0 0 0 3.569 31c0 .55.214 1.067.603 1.457l3.372 3.372c.778.779 2.135.78 2.914 0l1.056-1.056a16.95 16.95 0 0 0 4.042 1.674v1.495c0 1.135.924 2.059 2.06 2.059h4.769c1.135 0 2.059-.924 2.059-2.06v-1.494a16.92 16.92 0 0 0 4.042-1.674l1.056 1.056c.78.78 2.135.778 2.914 0l3.372-3.372c.39-.39.603-.907.603-1.457s-.214-1.067-.603-1.457l-1.056-1.056a16.95 16.95 0 0 0 1.674-4.042h1.495c1.135 0 2.059-.924 2.059-2.06v-4.77c0-1.135-.924-2.059-2.06-2.059zm.578 6.83c0 .318-.26.578-.578.578h-2.66l-.134.572a15.47 15.47 0 0 1-1.936 4.675l-.31.5 1.88 1.88a.578.578 0 0 1 0 .818l-3.372 3.372a.578.578 0 0 1-.818 0l-1.88-1.88-.5.31c-1.445.9-3.017 1.55-4.675 1.936l-.572.133v2.661c0 .319-.26.578-.578.578h-4.77a.579.579 0 0 1-.578-.578v-2.66l-.573-.134a15.47 15.47 0 0 1-4.675-1.936l-.499-.31-1.88 1.88a.578.578 0 0 1-.818 0l-3.373-3.372a.578.578 0 0 1 0-.818l1.88-1.88-.31-.5a15.436 15.436 0 0 1-1.936-4.675l-.133-.572H2.06a.579.579 0 0 1-.579-.578v-4.77c0-.319.26-.578.578-.578h2.66l.134-.573A15.455 15.455 0 0 1 6.79 11.79l.31-.499-1.88-1.88a.578.578 0 0 1 0-.818l3.373-3.373a.578.578 0 0 1 .817 0L11.29 7.1l.5-.31c1.444-.9 3.016-1.55 4.674-1.936l.573-.133V2.06c0-.32.259-.579.577-.579h4.77c.32 0 .579.26.579.578v2.66l.572.134A15.47 15.47 0 0 1 28.21 6.79l.5.31 1.88-1.88a.578.578 0 0 1 .818 0l3.372 3.373a.578.578 0 0 1 0 .817L32.9 11.29l.31.5a15.42 15.42 0 0 1 1.936 4.674l.133.573h2.661c.319 0 .578.259.578.577v4.77z"/><path d="M19.864 12.364c-4.136 0-7.5 3.364-7.5 7.5 0 4.135 3.364 7.5 7.5 7.5 4.135 0 7.5-3.365 7.5-7.5 0-4.136-3.365-7.5-7.5-7.5zm0 13.5c-3.309 0-6-2.692-6-6 0-3.309 2.691-6 6-6 3.308 0 6 2.691 6 6 0 3.308-2.692 6-6 6z"/></g></svg>
