<svg width="16" height="16" xmlns="http://www.w3.org/2000/svg"><g fill="#D02746" fill-rule="nonzero"><path d="M11.44 0H4.56A4.575 4.575 0 0 0 0 4.56v6.88A4.575 4.575 0 0 0 4.56 16h6.88A4.575 4.575 0 0 0 16 11.44V4.56A4.575 4.575 0 0 0 11.44 0zm4.027 11.44a4.04 4.04 0 0 1-4.027 4.027H4.56A4.04 4.04 0 0 1 .533 11.44V4.56A4.04 4.04 0 0 1 4.56.533h6.88a4.04 4.04 0 0 1 4.027 4.027v6.88z"/><path d="M11.44 1.6H4.56A2.97 2.97 0 0 0 1.6 4.56v6.88a2.97 2.97 0 0 0 2.96 2.96h6.88a2.97 2.97 0 0 0 2.96-2.96V4.56a2.97 2.97 0 0 0-2.96-2.96zm2.427 9.84a2.436 2.436 0 0 1-2.427 2.427H4.56a2.436 2.436 0 0 1-2.427-2.427V4.56A2.436 2.436 0 0 1 4.56 2.133h6.88a2.436 2.436 0 0 1 2.427 2.427v6.88z"/><path d="M8 3.733A4.28 4.28 0 0 0 3.733 8 4.28 4.28 0 0 0 8 12.267 4.28 4.28 0 0 0 12.267 8 4.28 4.28 0 0 0 8 3.733zm0 8A3.744 3.744 0 0 1 4.267 8 3.744 3.744 0 0 1 8 4.267 3.744 3.744 0 0 1 11.733 8 3.744 3.744 0 0 1 8 11.733z"/><path d="M8 5.067A2.925 2.925 0 0 0 5.067 8 2.925 2.925 0 0 0 8 10.933 2.925 2.925 0 0 0 10.933 8 2.925 2.925 0 0 0 8 5.067zM8 10.4A2.39 2.39 0 0 1 5.6 8 2.39 2.39 0 0 1 8 5.6 2.39 2.39 0 0 1 10.4 8 2.39 2.39 0 0 1 8 10.4zM12.267 2.933c-.454 0-.8.347-.8.8 0 .454.346.8.8.8.453 0 .8-.346.8-.8 0-.453-.347-.8-.8-.8z"/></g></svg>
