<svg width="40" height="40" xmlns="http://www.w3.org/2000/svg"><path d="M31.338 3.537l.033-.022-.882-.544c-.052-.032-.107-.058-.159-.09a20.47 20.47 0 0 0-.882-.503c-.151-.081-.305-.158-.458-.235a19.385 19.385 0 0 0-.681-.328c-.136-.062-.27-.126-.406-.184a19.825 19.825 0 0 0-1.084-.432c-.076-.028-.152-.051-.228-.078A20.14 20.14 0 0 0 24.203.45c-.035-.007-.069-.016-.104-.024-.41-.086-.825-.156-1.244-.216-.092-.014-.185-.024-.277-.036a20.089 20.089 0 0 0-.989-.102c-.112-.009-.223-.019-.335-.026A18.618 18.618 0 0 0 20 0a20.213 20.213 0 0 0-1.705.077c-.42.036-.838.081-1.252.143l-.124.017a19.738 19.738 0 0 0-1.636.33c-.374.09-.745.19-1.111.301-.116.035-.23.074-.345.111a19.321 19.321 0 0 0-1.412.519c-.368.151-.732.31-1.088.483-.118.056-.233.12-.35.179-.278.141-.553.289-.824.443-.135.076-.27.152-.404.232-.338.204-.671.416-.996.638-.045.03-.092.056-.136.087l-.364.252.004.015C3.258 7.465 0 13.357 0 20c0 11.028 8.972 20 20 20s20-8.972 20-20c0-6.82-3.435-12.852-8.662-16.463zm-21.279.675c.216-.136.434-.267.654-.394.122-.07.242-.143.366-.211.31-.17.624-.328.941-.478.137-.066.276-.126.415-.188.233-.104.467-.202.703-.296.13-.052.26-.106.391-.154.338-.126.679-.24 1.023-.345.126-.039.255-.073.382-.109.267-.075.536-.145.807-.208.122-.029.243-.059.365-.085.373-.08.748-.149 1.126-.205.086-.013.173-.022.26-.034a19.164 19.164 0 0 1 1.298-.13c.402-.024.805-.042 1.21-.042.353 0 .705.012 1.055.032.101.006.2.016.3.023.253.019.506.04.757.069.111.012.222.028.333.042a17.677 17.677 0 0 1 1.797.328c.092.021.185.041.276.064.307.076.611.16.913.252.031.01.062.017.093.026.323.1.641.211.958.328.127.047.25.098.376.148.184.073.367.147.549.226a19.737 19.737 0 0 1 1.189.568c-2.548 1.021-4.13 2.272-5.902 4.577a1.763 1.763 0 0 0-.367 1.124 1.799 1.799 0 0 0-.676-.844c-.617-.405-1.425-.377-2.468.089l-.19.021c-1.338.15-2.074.232-2.141 1.687a2.082 2.082 0 0 0 1.005 1.85c.164.098.335.17.51.213a.713.713 0 0 0 .091.193l.269.372.428-.072c.367-.062.675-.075.884-.069-.032.296.02.599.154.869.185.374.504.648.897.769.376.116.409.229.454.384.214.737.7 1.281 1.335 1.493.607.203 1.281.072 1.852-.357.343-.26.537-.205 1.286.157.488.236 1.097.53 1.885.632.124.015.198.052.225.081.542.57.958 1.277 1.36 1.962.616 1.049 1.198 2.04 2.2 2.56.783.407-.094 2.706-.515 3.81-.085.223-.164.43-.23.616-1.016.783-1.637 1.671-2.237 2.531-.538.77-1.094 1.567-1.956 2.308-1.302 1.121-2.404 1.792-3.682 2.247a.35.35 0 0 1-.396-.109.33.33 0 0 1-.04-.389c1.315-2.355 2.836-5.675.867-7.305-1.93-1.598-2.653-3.917-1.843-5.908.345-.845-.04-1.793-.891-2.238-.073-.089-.125-.476-.159-.733-.075-.563-.168-1.264-.585-1.875a1.991 1.991 0 0 0-.698-.586c-.814-.399-1.595-.513-2.35-.622-.602-.088-1.17-.171-1.75-.393-2.21-.847-3.781-4.43-4.93-7.048-.163-.375-.321-.734-.473-1.07l.24-.154zM20 38.667C9.707 38.667 1.333 30.293 1.333 20c0-6.051 2.897-11.437 7.374-14.85l.364.823c1.312 2.99 2.944 6.711 5.672 7.758.718.275 1.388.373 2.036.466.684.1 1.33.194 1.958.502.05.024.155.106.182.139.238.35.302.832.364 1.299.086.644.184 1.374.836 1.718.212.113.397.34.302.574-1.036 2.541-.162 5.46 2.227 7.438.612.506.904 1.894-1.181 5.628-.344.614-.27 1.36.186 1.9a1.683 1.683 0 0 0 1.861.504c1.443-.513 2.67-1.258 4.105-2.492.99-.851 1.594-1.717 2.18-2.555.59-.846 1.149-1.645 2.064-2.32a.793.793 0 0 0 .285-.383c.072-.21.167-.458.27-.732.686-1.797 1.722-4.514-.115-5.469-.661-.343-1.126-1.135-1.665-2.051-.42-.716-.897-1.526-1.544-2.208-.25-.263-.604-.43-1.02-.484-.573-.074-1.031-.296-1.475-.51-.732-.354-1.643-.794-2.668-.023-.154.117-.388.237-.628.159-.214-.072-.388-.29-.477-.6-.13-.447-.4-.996-1.341-1.287a.159.159 0 0 1-.096-.087.27.27 0 0 1-.002-.217c.126-.343.074-.69-.142-.952-.238-.288-.663-.436-1.268-.445a.658.658 0 0 0-.175-.314l-.405-.37-.454.268c-.118.07-.252.061-.396-.027a.752.752 0 0 1-.362-.647c.007-.153.017-.24.026-.29.163-.048.553-.092.932-.134l.404-.046.098-.045c.596-.277 1.072-.36 1.275-.23.082.055.346.313.316 1.385l-.017.592.586.086c.76.114 1.324-.034 1.676-.438.363-.417.429-1.036.194-1.84a.425.425 0 0 1 .076-.365c1.845-2.4 3.393-3.505 6.339-4.522 5.154 3.327 8.577 9.117 8.577 15.694 0 10.293-8.374 18.667-18.667 18.667z" fill="#D02746" fill-rule="nonzero"/></svg>
