<svg width="40" height="40" xmlns="http://www.w3.org/2000/svg"><g fill="#D02746" fill-rule="nonzero"><path d="M37.461 26.096c.306-1.325.47-2.675.47-4.027 0-6.272-3.194-11.984-8.544-15.278a.69.69 0 1 0-.724 1.175c4.94 3.04 7.889 8.313 7.889 14.103 0 1.19-.138 2.38-.395 3.55a4.833 4.833 0 0 0-5.812 4.726 4.833 4.833 0 0 0 4.827 4.827A4.833 4.833 0 0 0 40 30.345a4.832 4.832 0 0 0-2.539-4.25zm-2.289 7.697a3.452 3.452 0 0 1-3.448-3.448 3.452 3.452 0 0 1 3.448-3.448 3.452 3.452 0 0 1 3.449 3.448 3.452 3.452 0 0 1-3.449 3.448zM26.325 37.367A16.46 16.46 0 0 1 20 38.62c-4.403 0-8.64-1.776-11.736-4.891a4.81 4.81 0 0 0 1.391-3.385 4.833 4.833 0 0 0-4.827-4.828A4.833 4.833 0 0 0 0 30.345a4.833 4.833 0 0 0 4.828 4.827c.845 0 1.64-.22 2.331-.603A17.962 17.962 0 0 0 20 40c2.369 0 4.674-.457 6.852-1.36a.69.69 0 0 0-.527-1.273zM1.379 30.345a3.452 3.452 0 0 1 3.449-3.448 3.452 3.452 0 0 1 3.448 3.448 3.452 3.452 0 0 1-3.448 3.448 3.452 3.452 0 0 1-3.449-3.448zM2.759 21.526a.69.69 0 0 0 .737-.64A16.467 16.467 0 0 1 15.37 6.189 4.833 4.833 0 0 0 20 9.655a4.833 4.833 0 0 0 4.828-4.827A4.833 4.833 0 0 0 20 0a4.833 4.833 0 0 0-4.827 4.81A17.842 17.842 0 0 0 2.12 20.79c-.027.38.26.71.64.736zM20 1.38a3.452 3.452 0 0 1 3.448 3.449A3.452 3.452 0 0 1 20 8.276a3.452 3.452 0 0 1-3.448-3.448A3.452 3.452 0 0 1 20 1.379z"/></g></svg>
