<svg width="16" height="14" xmlns="http://www.w3.org/2000/svg"><path d="M15.908 1.576a.34.34 0 0 0-.326-.087l-.543.204c.326-.409.543-.846.68-1.254.054-.146.026-.263-.055-.35a.274.274 0 0 0-.326-.059c-.76.35-1.412.642-1.955.817 0 .03-.027 0-.055 0C12.894.584 11.835 0 11.074 0c-1.928.03-3.476 1.78-3.476 3.908v.117C4.774 3.443 3.226 2.568 1.542.672L1.271.38l-.163.35c-.924 1.896-.272 3.617.787 4.783a2.148 2.148 0 0 1-1.113-.525c-.109-.087-.245-.116-.38-.029-.11.058-.163.233-.136.38.38 1.37 1.33 2.478 2.362 3.149-.488 0-.896-.058-1.303-.35a.36.36 0 0 0-.38.03c-.109.087-.163.232-.109.378.489 1.488 1.44 2.275 2.96 2.48-.787.495-1.82.903-3.422.932a.389.389 0 0 0-.353.263c-.054.175 0 .32.109.437C1.108 13.504 3.28 14 5.969 14c4.78 0 8.69-4.579 8.69-10.207v-.088c.598-.32 1.086-.933 1.33-1.779a.404.404 0 0 0-.08-.35zm-1.63 1.662l-.162.059v.496c0 5.307-3.666 9.624-8.147 9.624-2.472 0-4.128-.438-5.024-.904 1.874-.146 2.96-.788 3.802-1.488l.679-.525H4.61c-1.548 0-2.499-.466-3.042-1.575.49.175 1.005.175 1.575.146.218-.029.435-.029.652-.029l.082-.583c-1.032-.321-2.254-1.313-2.852-2.654.543.262 1.14.32 1.684.32h.842l-.68-.524C2.303 5.163.62 3.618 1.435 1.4c1.738 1.837 3.394 2.683 6.381 3.266l.326.059v-.817c0-1.808 1.304-3.295 2.933-3.325.625-.029 1.657.584 1.956.759.163.087.326.116.489.058.407-.146.896-.35 1.439-.583-.245.437-.57.846-1.005 1.225-.109.087-.136.262-.081.408a.262.262 0 0 0 .353.146l1.059-.38c-.19.38-.49.817-1.005 1.021z" fill="#D02746" fill-rule="nonzero"/></svg>
