<svg width="40" height="40" xmlns="http://www.w3.org/2000/svg"><g fill="#D02746" fill-rule="nonzero"><path d="M39.639 24.657c-1.168-1.628-2.354-1.654-5.32-.094l-5.748 3.515c-.852.453-2.601.59-4.297.618.302-.627.166-1.376-.403-2.226-1.045-1.559-2.836-2.489-4.792-2.489h-2.6c-1.413 0-2.769-.436-3.82-1.228-2.392-1.804-6.39-2.06-7.992-2.088v-1.332A.666.666 0 0 0 4 18.667H.667a.667.667 0 0 0-.667.666v20c0 .368.3.667.667.667H4a.666.666 0 0 0 .667-.667V38h8.667c1.36 0 2.732-.104 4.077-.308l8.642-1.314c.315-.004.634-.041.918-.105.796-.112 1.556-.492 2.201-1.1l10.105-7.87.016-.012a1.953 1.953 0 0 0 .346-2.634zM3.334 38.667h-2V20h2v18.667zm35.115-12.408L28.327 34.14l-.052.044c-.446.428-.962.693-1.556.78-.242.052-.484.08-.718.08l-8.79 1.328c-1.279.195-2.584.294-3.877.294H4.667V22c1.478.031 5.138.27 7.19 1.816 1.28.966 2.922 1.498 4.622 1.498h2.6c1.51 0 2.887.709 3.684 1.897.28.418.391.765.297.928-.177.308-1.004.498-1.842.535a44.329 44.329 0 0 0-.739-.008H14c-2.087 0-3.333.996-3.333 2.666a.666.666 0 1 0 1.334 0c0-.33 0-1.333 2-1.333h6.455c.15.01.446.023.815.009l.355.006c3.127.058 6.062.042 7.606-.78l5.745-3.513c2.75-1.445 3.025-1.057 3.578-.287a.615.615 0 0 1-.106.824zM22.667 8.667c0 1.24.851 2.285 2 2.582v2.57a1.333 1.333 0 0 1-.666-1.152.666.666 0 1 0-1.334 0c0 1.24.851 2.285 2 2.582V16a.666.666 0 1 0 1.334 0v-.75a2.671 2.671 0 0 0 2-2.583c0-1.24-.851-2.286-2-2.583v-2.57c.398.23.666.66.666 1.153a.666.666 0 1 0 1.334 0c0-1.24-.851-2.286-2-2.583v-.75a.666.666 0 1 0-1.334 0v.75a2.671 2.671 0 0 0-2 2.583zm1.334 0c0-.493.268-.922.666-1.153V9.82a1.333 1.333 0 0 1-.666-1.153zm2.666 4c0 .492-.268.922-.666 1.153v-2.306c.398.23.666.66.666 1.153zM26.472 4.096c.435.076.865.194 1.278.355a.667.667 0 1 0 .482-1.243 7.962 7.962 0 0 0-1.534-.425.666.666 0 1 0-.226 1.313zM26.499 17.232c-.382.067-.773.101-1.165.101l-.16-.001h-.015a.668.668 0 0 0-.015 1.332l.19.002c.469 0 .939-.04 1.396-.12a.665.665 0 1 0-.231-1.314zM32 10.666c0 .445-.044.89-.13 1.321a.668.668 0 0 0 1.307.263c.105-.518.157-1.05.157-1.608l-.667-.005h.667a.655.655 0 0 0-.667-.652.68.68 0 0 0-.666.681zM31.178 7.457a.668.668 0 0 0 .907.261.666.666 0 0 0 .261-.905 8.168 8.168 0 0 0-.902-1.31.667.667 0 0 0-1.018.86c.285.338.538.705.752 1.094zM29.91 17.065a.663.663 0 0 0 .417-.147 8.057 8.057 0 0 0 1.139-1.112.667.667 0 0 0-1.022-.856c-.284.338-.604.65-.95.928a.666.666 0 0 0 .417 1.187zM19.072 12.96a6.677 6.677 0 0 1-.33-1.286.667.667 0 0 0-1.318.2c.08.525.213 1.044.395 1.542a.667.667 0 1 0 1.253-.457zM18.208 8.8a.666.666 0 0 0 .854-.4c.15-.416.344-.818.575-1.196a.667.667 0 0 0-1.14-.694 8.045 8.045 0 0 0-.688 1.436.667.667 0 0 0 .4.854zM20.05 16.673c.398.351.834.663 1.292.928a.664.664 0 0 0 .912-.244.666.666 0 0 0-.245-.91 6.724 6.724 0 0 1-1.08-.775.666.666 0 1 0-.88 1.001zM21.65 4.991c.115 0 .23-.03.336-.09.383-.224.79-.409 1.208-.55a.668.668 0 0 0-.429-1.262 8.02 8.02 0 0 0-1.45.659.668.668 0 0 0 .336 1.243z"/><path d="M25.334 21.333c5.881 0 10.667-4.785 10.667-10.666C36 4.785 31.215 0 25.334 0S14.667 4.785 14.667 10.667c0 5.881 4.786 10.666 10.667 10.666zm0-20c5.147 0 9.333 4.187 9.333 9.334 0 5.146-4.186 9.333-9.333 9.333s-9.333-4.187-9.333-9.333c0-5.147 4.186-9.334 9.333-9.334z"/></g></svg>
