<svg width="39" height="40" xmlns="http://www.w3.org/2000/svg"><g fill="#D02746" fill-rule="nonzero"><path d="M5 10c2.514 0 4.594-1.867 4.943-4.286h27.914a.714.714 0 1 0 0-1.428H9.943C9.594 1.867 7.513 0 5 0 2.243 0 0 2.244 0 5s2.243 5 5 5zm0-8.571A3.575 3.575 0 0 1 8.571 5 3.575 3.575 0 0 1 5 8.571 3.575 3.575 0 0 1 1.429 5 3.575 3.575 0 0 1 5 1.429zM33.571 30c-2.513 0-4.594 1.867-4.942 4.286H.714a.714.714 0 1 0 0 1.428H28.63C28.977 38.133 31.058 40 33.57 40c2.757 0 5-2.244 5-5s-2.243-5-5-5zm0 8.571A3.575 3.575 0 0 1 30 35a3.575 3.575 0 0 1 3.571-3.571A3.575 3.575 0 0 1 37.143 35a3.575 3.575 0 0 1-3.572 3.571zM37.857 19.286H24.55a5.154 5.154 0 0 0-5.115-4.582 5.154 5.154 0 0 0-5.115 4.582H.714a.714.714 0 1 0 0 1.428h13.65c.412 2.429 2.525 4.286 5.07 4.286 2.544 0 4.657-1.857 5.069-4.286h13.354a.714.714 0 1 0 0-1.428zM19.434 23.57a3.724 3.724 0 0 1-3.72-3.719c0-2.05 1.669-3.72 3.72-3.72 2.05 0 3.719 1.67 3.719 3.72 0 2.05-1.669 3.72-3.72 3.72z"/></g></svg>
