<svg width="200" height="24" xmlns="http://www.w3.org/2000/svg"><g fill="none" fill-rule="evenodd"><path d="M8.871 23.387c-4.6 0-7.619-2.249-8.871-5.645l4.435-2.42c.799 1.8 2.18 3.054 4.84 3.226 2.316-.172 2.926-1.136 2.822-2.016.104-1.369-1.18-1.915-4.436-2.822-3.455-.956-6.73-2.563-6.855-6.855C.931 2.505 4.592 0 8.468 0c3.701 0 6.591 1.767 8.064 5.242L12.5 7.662c-.909-1.655-1.968-2.65-4.032-2.823-1.597.173-2.4.976-2.42 2.016.02.887.566 1.594 4.033 2.822 3.437.86 7.258 2.049 7.258 6.855 0 4.285-3.468 6.855-8.468 6.855zm21.774 0c-6.77 0-11.693-5.076-11.693-11.693C18.952 5.076 23.876 0 30.645 0c4.11 0 7.714 2.024 9.678 5.242l-4.436 2.42c-1.004-1.622-2.935-2.65-5.242-2.823-3.969.173-6.544 2.839-6.451 6.855-.093 4.015 2.482 6.682 6.451 6.854 2.307-.172 4.27-1.2 5.242-2.822l4.436 2.42c-1.932 3.217-5.536 5.241-9.678 5.241zm22.58 0c-6.456 0-11.693-5.076-11.693-11.693C41.532 5.076 46.77 0 53.226 0c6.457 0 11.693 5.076 11.693 11.694 0 6.617-5.236 11.693-11.693 11.693zm.404-5.242c3.516 0 6.452-2.655 6.452-6.451 0-4.2-2.936-6.855-6.452-6.855-3.92 0-6.855 2.655-6.855 6.855 0 3.796 2.935 6.451 6.855 6.451zM76.209.403c4.597 0 8.065 3.452 8.065 7.662 0 4.37-3.468 7.822-8.064 7.66h-3.226v7.259h-5.242V.404h8.468zm0 10.484c1.677 0 2.823-1.223 2.823-2.822 0-1.6-1.146-2.823-2.822-2.823h-3.226v5.645h3.226zm15.726 7.258h8.871v4.839H86.694V.404h14.112v4.838h-8.87v4.032H100v4.839h-8.065v4.032zm19.759 5.242c-4.601 0-7.62-2.249-8.871-5.645l4.435-2.42c.798 1.8 2.179 3.054 4.839 3.226 2.317-.172 2.927-1.136 2.822-2.016.105-1.369-1.18-1.915-4.435-2.822-3.455-.956-6.73-2.563-6.855-6.855.125-4.35 3.785-6.855 7.661-6.855 3.702 0 6.592 1.767 8.065 5.242l-4.032 2.42c-.91-1.655-1.969-2.65-4.033-2.823-1.596.173-2.399.976-2.419 2.016.02.887.566 1.594 4.032 2.822 3.437.86 7.258 2.049 7.258 6.855 0 4.285-3.467 6.855-8.467 6.855zM134.677.403h5.242v22.58h-5.242v-8.87h-6.854v8.87h-5.242V.404h5.242v8.468h6.854V.403zm23.388 22.58l-1.21-3.628h-8.065l-1.21 3.629h-5.645l7.662-22.58h6.451l7.662 22.58h-5.645zm-7.662-8.467h5.242l-2.822-8.064-2.42 8.064zm27.42 8.468l-4.033-7.258h-2.419v7.258h-5.242V.404H175c4.39 0 7.826 3.45 7.661 7.66.165 2.855-1.505 5.371-4.032 6.452l4.839 8.468h-5.645zm-6.855-17.742v5.645H175c1.258 0 2.42-1.223 2.42-2.822 0-1.6-1.162-2.823-2.42-2.823h-4.032zm20.161 12.903H200v4.839h-14.113V.404H200v4.838h-8.871v4.032h8.065v4.839h-8.065v4.032z" fill="#FFF"/><circle fill="#D02746" cx="53.427" cy="11.492" r="2.621"/></g></svg>
